<svg width="48" height="48" viewBox="0 0 48 48" fill="none" xmlns="http://www.w3.org/2000/svg">
<rect width="48" height="48" rx="24" fill="#FF9DE2"/>
<path d="M17.9221 36.4688C18.0429 36.4617 18.1587 36.4115 18.2441 36.3242C18.3295 36.237 18.3775 36.1207 18.3775 36C18.3775 35.8793 18.3295 35.763 18.2441 35.6758C18.1587 35.5885 18.0429 35.5383 17.9221 35.5312C17.9221 35.5312 17.9221 35.5312 17.9221 35.5312C17.0369 35.476 16.1358 35.4035 15.2577 35.3109C14.9915 35.2811 14.6905 35.2482 14.493 35.2039C14.3658 35.19 14.3141 35.1177 14.5004 35.2373C14.6305 35.36 14.5962 35.3726 14.5951 35.3114C14.5874 35.2544 14.5795 35.1605 14.5738 35.0631C14.5619 34.8643 14.5529 34.6424 14.5392 34.4197C14.4586 33.0399 14.403 31.6499 14.3281 30.2525C14.1379 26.6593 14.1647 23.051 14.202 19.4233C14.2044 18.7473 14.2601 18.1337 14.2885 17.3513C14.3105 16.5975 14.3401 15.8383 14.381 15.0895C14.4017 14.715 14.4253 14.342 14.4558 13.9806C14.4711 13.8005 14.4883 13.6217 14.5087 13.4567C14.5186 13.3766 14.5301 13.2948 14.5411 13.2309C14.5479 13.177 14.5775 13.0839 14.5448 13.183C14.5388 13.1988 14.5303 13.22 14.5164 13.2491C14.3931 13.4854 14.3081 13.5087 14.2995 13.5211C14.2874 13.5281 14.3215 13.5079 14.3711 13.489C14.4735 13.4485 14.6348 13.4043 14.8048 13.3706C15.1494 13.3018 15.5446 13.2622 15.9364 13.2469C16.3285 13.2318 16.7289 13.2402 17.0979 13.2774C17.2819 13.296 17.4599 13.3229 17.6033 13.3559C17.7336 13.3747 17.8913 13.4751 17.7289 13.3616C17.615 13.2423 17.7092 13.3131 17.7515 13.4874C17.8034 13.6608 17.8438 13.8985 17.8912 14.1936C18.7511 19.7033 18.9343 25.4582 19.4014 31.1708C19.4732 32.0708 19.5507 32.9717 19.6399 33.8697C19.6519 33.9901 19.7069 34.1037 19.7976 34.1855C19.8883 34.2672 20.0065 34.3103 20.1271 34.3053C20.2477 34.3003 20.3619 34.2476 20.4455 34.1586C20.5291 34.0697 20.5746 33.9519 20.5766 33.8309C20.5766 33.8309 20.5766 33.8309 20.5766 33.8309C20.5917 32.9353 20.6133 32.0362 20.6353 31.1367C20.761 25.4134 20.9801 19.6762 20.2562 13.8405C20.123 13.2852 20.3084 12.5345 19.2871 11.4871C18.7776 11.0981 18.4865 11.0654 18.1892 10.9748C17.8985 10.9016 17.6334 10.8596 17.3724 10.828C16.8542 10.767 16.3568 10.7512 15.8563 10.7639C15.3552 10.7786 14.8552 10.8198 14.3233 10.9215C14.0557 10.9744 13.7822 11.0388 13.4659 11.1598C13.1591 11.3191 12.7475 11.3397 12.2606 12.1714C12.2382 12.2184 12.2213 12.2596 12.2068 12.2977C11.7562 14.4967 11.8946 15.6577 11.8344 17.3057C11.8257 17.9232 11.7794 18.7072 11.7984 19.4332C11.866 23.0834 12.0295 26.7616 12.5019 30.4195C12.6809 31.7971 12.8544 33.185 13.0672 34.5763C13.0998 34.785 13.1278 34.9919 13.1642 35.224C13.1833 35.3409 13.2023 35.4621 13.2418 35.6166C13.2891 35.7624 13.3201 35.9967 13.6156 36.264C13.9843 36.5349 14.179 36.4802 14.2769 36.5068C14.6319 36.5446 14.8968 36.5399 15.1899 36.5434C16.1088 36.5441 17.0095 36.5174 17.9221 36.4688Z" fill="#21161C"/>
<path d="M33.0305 36.4688C33.1513 36.4617 33.2671 36.4115 33.3525 36.3242C33.4379 36.237 33.4859 36.1207 33.4859 36C33.4859 35.8793 33.4379 35.763 33.3525 35.6758C33.2671 35.5885 33.1513 35.5383 33.0305 35.5312C33.0305 35.5312 33.0305 35.5312 33.0305 35.5312C32.1453 35.476 31.2442 35.4035 30.3661 35.3109C30.0999 35.2811 29.7989 35.2482 29.6014 35.2039C29.4742 35.19 29.4225 35.1177 29.6088 35.2373C29.7389 35.36 29.7046 35.3726 29.7035 35.3114C29.6958 35.2544 29.6879 35.1605 29.6822 35.0631C29.6703 34.8643 29.6613 34.6424 29.6476 34.4197C29.567 33.0399 29.5114 31.6499 29.4365 30.2525C29.2463 26.6593 29.2731 23.051 29.3104 19.4233C29.3127 18.7473 29.3685 18.1337 29.3969 17.3513C29.4189 16.5975 29.4485 15.8383 29.4894 15.0895C29.5101 14.715 29.5337 14.342 29.5642 13.9806C29.5795 13.8005 29.5967 13.6217 29.6171 13.4567C29.627 13.3766 29.6385 13.2948 29.6495 13.2309C29.6563 13.177 29.6859 13.0839 29.6532 13.183C29.6472 13.1988 29.6387 13.22 29.6248 13.2491C29.5015 13.4854 29.4165 13.5087 29.4079 13.5211C29.3958 13.5281 29.4299 13.5079 29.4795 13.489C29.5819 13.4485 29.7431 13.4043 29.9132 13.3706C30.2578 13.3018 30.653 13.2622 31.0448 13.2469C31.4369 13.2318 31.8373 13.2402 32.2063 13.2774C32.3903 13.296 32.5683 13.3229 32.7117 13.3559C32.842 13.3747 32.9997 13.4751 32.8373 13.3616C32.7234 13.2423 32.8176 13.3131 32.8599 13.4874C32.9118 13.6608 32.9522 13.8985 32.9996 14.1936C33.8595 19.7033 34.0427 25.4582 34.5098 31.1708C34.5816 32.0708 34.6591 32.9717 34.7483 33.8697C34.7603 33.9901 34.8153 34.1037 34.906 34.1855C34.9967 34.2672 35.1148 34.3103 35.2355 34.3053C35.3561 34.3003 35.4703 34.2476 35.5539 34.1586C35.6375 34.0697 35.683 33.9519 35.685 33.8309C35.685 33.8309 35.685 33.8309 35.685 33.8309C35.7001 32.9353 35.7217 32.0362 35.7437 31.1367C35.8694 25.4134 36.0885 19.6762 35.3646 13.8405C35.2314 13.2852 35.4168 12.5345 34.3955 11.4871C33.886 11.0981 33.5949 11.0654 33.2976 10.9748C33.0069 10.9016 32.7418 10.8596 32.4808 10.828C31.9626 10.767 31.4652 10.7512 30.9647 10.7639C30.4636 10.7786 29.9636 10.8198 29.4317 10.9215C29.1641 10.9744 28.8906 11.0388 28.5743 11.1598C28.2675 11.3191 27.8559 11.3397 27.369 12.1714C27.3466 12.2184 27.3297 12.2596 27.3152 12.2977C26.8646 14.4967 27.003 15.6577 26.9428 17.3057C26.934 17.9232 26.8878 18.7072 26.9068 19.4332C26.9744 23.0834 27.1379 26.7616 27.6103 30.4195C27.7892 31.7971 27.9628 33.185 28.1756 34.5763C28.2082 34.785 28.2362 34.9919 28.2726 35.224C28.2917 35.3409 28.3107 35.4621 28.3502 35.6166C28.3975 35.7624 28.4285 35.9967 28.724 36.264C29.0927 36.5349 29.2874 36.4802 29.3853 36.5068C29.7403 36.5446 30.0052 36.5399 30.2983 36.5434C31.2172 36.5441 32.1179 36.5174 33.0305 36.4688Z" fill="#21161C"/>
</svg>
