<svg width="48" height="48" viewBox="0 0 48 48" fill="none" xmlns="http://www.w3.org/2000/svg">
<path d="M15.0896 41.9688C15.2115 41.9639 15.3283 41.9139 15.4145 41.8265C15.5007 41.739 15.5491 41.6218 15.5491 41.5C15.5491 41.3782 15.5007 41.261 15.4145 41.1735C15.3283 41.0861 15.2115 41.0361 15.0896 41.0312C15.0896 41.0312 15.0896 41.0312 15.0896 41.0312C13.7955 40.9743 12.4845 40.8911 11.1977 40.7753C10.8209 40.7389 10.4115 40.7004 10.1039 40.6396C9.9263 40.6163 9.82317 40.5403 9.96812 40.6272C10.0602 40.7183 10.0097 40.6764 9.99794 40.5674C9.97969 40.4611 9.96587 40.3177 9.95462 40.1712C9.93217 39.8735 9.91512 39.5537 9.89121 39.2324C9.74626 37.2173 9.64044 35.1908 9.50985 33.1576C9.1742 27.9018 9.17126 22.6235 9.202 17.328C9.20071 16.3304 9.27903 15.3955 9.3156 14.2933C9.38083 12.1742 9.44661 9.56112 9.71438 8.01133C9.71082 8.02115 9.70432 8.03893 9.69012 8.06917C9.59271 8.25579 9.54546 8.24923 9.57736 8.23435C9.60661 8.2143 9.68356 8.17379 9.77851 8.13659C9.97156 8.05987 10.2278 7.99097 10.4937 7.93746C11.0304 7.82978 11.6226 7.77166 12.2108 7.74946C12.7995 7.72797 13.3975 7.742 13.9615 7.80161C14.2431 7.83166 14.5184 7.87429 14.7566 7.93132C14.9806 7.97488 15.2343 8.10513 15.1484 8.05172C15.1342 8.01579 15.2798 8.22041 15.3558 8.52095C15.4415 8.82267 15.499 9.19137 15.5648 9.61599C16.7741 17.7316 16.949 26.1218 17.4922 34.4577C17.5749 35.7673 17.6646 37.0778 17.7701 38.3842C17.7799 38.5058 17.8346 38.6205 17.9255 38.703C18.0164 38.7856 18.1355 38.8292 18.2572 38.8242C18.3789 38.8192 18.4941 38.766 18.5779 38.6764C18.6617 38.5867 18.7069 38.4679 18.7068 38.3459C18.7068 38.3459 18.7068 38.3459 18.7068 38.3459C18.7057 37.0419 18.715 35.7331 18.7261 34.424C18.7773 26.0775 19.0047 17.7049 17.9317 9.26704C17.7574 8.45663 17.9299 7.42699 16.7186 6.18601C15.5937 5.40941 14.9883 5.49 14.2395 5.35209C13.5244 5.26835 12.828 5.24704 12.1295 5.26639C11.4305 5.2881 10.7321 5.34811 10.0055 5.4897C9.64071 5.56299 9.27053 5.6528 8.86122 5.8121C8.46449 6.00905 7.95126 6.0859 7.42917 7.00235C7.39987 7.0646 7.37845 7.11909 7.36016 7.17013C6.8053 10.0151 6.94038 11.9089 6.86152 14.2482C6.84449 15.1876 6.77594 16.2908 6.79863 17.3377C6.87302 22.6556 7.06694 28.0029 7.68568 33.3224C7.9207 35.3361 8.14489 37.3605 8.42247 39.3867C8.4654 39.6942 8.50153 39.9993 8.54848 40.3297C8.57299 40.4954 8.59799 40.6655 8.64743 40.8676C8.70542 41.0604 8.74805 41.3421 9.07962 41.6456C9.48628 41.9525 9.73888 41.9028 9.88581 41.9384C10.3491 41.9941 10.7242 41.9963 11.1278 42.0076C12.4575 42.0317 13.7674 42.0157 15.0896 41.9688Z" fill="#21161C"/>
<path d="M36.8513 41.9688C36.9732 41.9639 37.0901 41.9139 37.1762 41.8265C37.2624 41.739 37.3108 41.6218 37.3108 41.5C37.3108 41.3782 37.2624 41.261 37.1762 41.1735C37.0901 41.0861 36.9732 41.0361 36.8513 41.0312C36.8513 41.0312 36.8513 41.0312 36.8513 41.0312C35.5572 40.9743 34.2462 40.8911 32.9594 40.7753C32.5826 40.7389 32.1732 40.7004 31.8656 40.6396C31.688 40.6163 31.5849 40.5403 31.7298 40.6272C31.822 40.7183 31.7714 40.6764 31.7597 40.5674C31.7414 40.4611 31.7276 40.3177 31.7163 40.1712C31.6939 39.8735 31.6768 39.5537 31.6529 39.2324C31.508 37.2173 31.4022 35.1908 31.2716 33.1576C30.9359 27.9018 30.933 22.6235 30.9637 17.328C30.9624 16.3304 31.0408 15.3955 31.0773 14.2933C31.1426 12.1742 31.2083 9.56112 31.4761 8.01133C31.4725 8.02115 31.466 8.03893 31.4518 8.06917C31.3544 8.25579 31.3072 8.24923 31.3391 8.23435C31.3683 8.2143 31.4453 8.17379 31.5402 8.13659C31.7333 8.05987 31.9895 7.99097 32.2554 7.93746C32.7921 7.82978 33.3844 7.77166 33.9726 7.74946C34.5612 7.72797 35.1592 7.742 35.7232 7.80161C36.0049 7.83166 36.2801 7.87429 36.5183 7.93132C36.7423 7.97488 36.996 8.10513 36.9101 8.05172C36.8959 8.01579 37.0416 8.22041 37.1175 8.52095C37.2032 8.82267 37.2607 9.19137 37.3265 9.61599C38.5358 17.7316 38.7107 26.1218 39.2539 34.4577C39.3366 35.7673 39.4263 37.0778 39.5318 38.3842C39.5416 38.5058 39.5963 38.6205 39.6872 38.703C39.7781 38.7856 39.8972 38.8292 40.0189 38.8242C40.1407 38.8192 40.2558 38.766 40.3396 38.6764C40.4235 38.5867 40.4686 38.4679 40.4685 38.3459C40.4685 38.3459 40.4685 38.3459 40.4685 38.3459C40.4674 37.0419 40.4767 35.7331 40.4878 34.424C40.539 26.0775 40.7664 17.7049 39.6935 9.26704C39.5191 8.45663 39.6916 7.42699 38.4803 6.18601C37.3554 5.40941 36.75 5.49 36.0012 5.35209C35.2861 5.26835 34.5897 5.24704 33.8912 5.26639C33.1922 5.2881 32.4938 5.34811 31.7672 5.4897C31.4024 5.56299 31.0322 5.6528 30.6229 5.8121C30.2262 6.00905 29.713 6.0859 29.1909 7.00235C29.1616 7.0646 29.1402 7.11909 29.1219 7.17013C28.567 10.0151 28.7021 11.9089 28.6232 14.2482C28.6062 15.1876 28.5377 16.2908 28.5604 17.3377C28.6347 22.6556 28.8287 28.0029 29.4474 33.3224C29.6824 35.3361 29.9066 37.3605 30.1842 39.3867C30.2271 39.6942 30.2632 39.9993 30.3102 40.3297C30.3347 40.4954 30.3597 40.6655 30.4092 40.8676C30.4671 41.0604 30.5098 41.3421 30.8413 41.6456C31.248 41.9525 31.5006 41.9028 31.6475 41.9384C32.1109 41.9941 32.4859 41.9963 32.8895 42.0076C34.2192 42.0317 35.5291 42.0157 36.8513 41.9688Z" fill="#21161C"/>
</svg>
