<svg width="48" height="48" viewBox="0 0 48 48" fill="none" xmlns="http://www.w3.org/2000/svg">
<rect width="48" height="48" rx="24" fill="#FF9DE2"/>
<path d="M16.8381 19.8278C16.8275 19.7089 16.7767 19.5948 16.6898 19.5108C16.603 19.4267 16.4883 19.3794 16.3694 19.3794C16.2505 19.3794 16.1358 19.4267 16.049 19.5108C15.9621 19.5948 15.9113 19.7089 15.9006 19.8278C15.9006 19.8278 15.9006 19.8278 15.9006 19.8278C15.7965 20.9942 15.6901 22.1586 15.5829 23.3217C15.5217 23.9858 15.4603 24.6495 15.3988 25.3129C15.1605 27.8861 14.9324 30.4604 14.8115 33.0713C14.7841 33.7048 14.7667 34.3397 14.7701 34.9864C14.7722 35.3108 14.7791 35.637 14.7983 35.9766C14.8081 36.1469 14.8206 36.3192 14.8418 36.5075C14.8527 36.6024 14.8652 36.6994 14.8854 36.8139C14.8954 36.8698 14.9077 36.9338 14.927 37.0112C14.958 37.104 14.9354 37.1378 15.1003 37.4496C15.7231 38.3449 16.3916 38.2164 16.6597 38.25C23.6843 36.2906 28.0583 32.7807 33.4529 29.2637C34.5585 28.3628 35.4307 27.4102 36.3013 26.3908C36.462 26.2038 36.6018 25.9718 36.6911 25.7448C36.7775 25.5315 36.8383 25.2638 36.8248 25.3086C37.2125 24.0545 36.6249 23.3196 36.2836 22.7371C35.8876 22.1495 35.445 21.6649 34.9917 21.2051C34.0801 20.2912 33.1187 19.4992 32.1367 18.7331C30.1749 17.2115 28.1247 15.8329 26.0907 14.4877C23.8986 13.0407 21.7662 11.3991 19.0202 10.5052C18.5377 10.3735 18.0174 10.2647 17.4097 10.3478C17.1157 10.3859 16.8617 10.5646 16.7273 10.7078C16.5865 10.8541 16.5091 10.9795 16.4493 11.064L16.3902 11.1633C16.1199 11.7955 16.1138 12.2871 16.0753 12.7902C16.0479 13.3101 16.0509 13.8129 16.0588 14.3127C16.0672 14.9597 16.0795 15.7775 16.1082 16.2272C16.0836 16.3542 16.1056 16.4873 16.1739 16.5984C16.2421 16.7095 16.3503 16.7893 16.4756 16.8205C16.6009 16.8518 16.7339 16.832 16.8462 16.7659C16.9587 16.6999 17.0405 16.5926 17.0785 16.469C17.0785 16.469 17.0785 16.469 17.0785 16.469C17.1833 15.5737 17.1908 15.038 17.2425 14.3449C17.2718 13.8468 17.301 13.3593 17.3508 12.8916C17.3971 12.4556 17.474 11.9811 17.5961 11.7457L17.5371 11.8451C17.6827 11.6211 17.7599 11.6425 17.5992 11.6916C17.8813 11.6553 18.2667 11.716 18.6477 11.8245C18.6477 11.8245 18.6477 11.8245 18.6477 11.8245C18.6477 11.8245 18.6477 11.8245 18.6477 11.8245C20.9535 12.5628 23.1152 14.1906 25.2679 15.695C27.2723 17.0826 29.2444 18.4953 31.0942 20.0306C32.0166 20.7995 32.9103 21.5944 33.6986 22.4447C34.0885 22.868 34.4544 23.3099 34.7223 23.7444C35.0063 24.1598 35.0814 24.6622 35.034 24.6004C34.9193 24.9212 34.9255 24.9456 34.896 25.0036C34.8738 25.0487 34.8567 25.0707 34.8237 25.1054C33.9999 26.0056 33.0864 26.9136 32.176 27.5978C27.3208 30.6312 21.3939 34.3254 16.6487 35.75C16.6391 35.7519 16.6444 35.7418 16.751 35.7715C16.8308 35.7908 17.0995 35.912 17.253 36.1814C17.381 36.4272 17.3373 36.3821 17.3492 36.4012C17.3499 36.4047 17.3461 36.3891 17.3428 36.3709C17.3354 36.3322 17.327 36.2756 17.3196 36.2157C17.3045 36.0945 17.2923 35.9575 17.2822 35.8177C17.262 35.5367 17.2495 35.2411 17.2404 34.943C17.2225 34.3466 17.2183 33.7373 17.2183 33.1252C17.2256 30.5639 17.24 27.9664 17.1631 25.3677C17.1432 24.6958 17.1164 24.024 17.0826 23.3524C17.0233 22.1763 16.9423 21.001 16.8381 19.8278Z" fill="#21161C"/>
</svg>
