<svg width="48" height="48" viewBox="0 0 48 48" fill="none" xmlns="http://www.w3.org/2000/svg">
<path d="M11.966 18.3836C11.958 18.2633 11.9076 18.1479 11.8205 18.0629C11.7334 17.9778 11.6175 17.9301 11.4973 17.9301C11.377 17.9301 11.2611 17.9778 11.1741 18.0629C11.0869 18.1479 11.0365 18.2633 11.0285 18.3836C11.0285 18.3836 11.0285 18.3836 11.0285 18.3836C10.9243 19.955 10.8136 21.5243 10.6981 23.0922C10.6322 23.9875 10.5647 24.8823 10.4961 25.7768C10.2298 29.2452 9.95974 32.7146 9.81671 36.2207C9.78449 37.0697 9.76481 37.92 9.77192 38.7819C9.77591 39.2141 9.78623 39.6479 9.81221 40.0948C9.82552 40.3188 9.84229 40.5446 9.86975 40.7864C9.88382 40.9083 9.89996 41.0318 9.92488 41.1728C9.93719 41.2415 9.95233 41.3193 9.97483 41.4095C10.0091 41.515 9.99013 41.5626 10.1614 41.8857C10.8179 42.8371 11.5609 42.7163 11.8861 42.75C20.9478 40.2049 27.1047 35.4481 34.2733 30.7974C35.7278 29.6221 36.909 28.3475 38.073 26.9959C38.2672 26.7706 38.4341 26.4945 38.5427 26.2204C38.6492 25.9602 38.7194 25.6419 38.7235 25.6389C39.1864 24.1785 38.4841 23.2295 38.0346 22.4743C37.5237 21.7098 36.9412 21.0648 36.3419 20.4522C35.1361 19.2329 33.8537 18.1662 32.542 17.1345C29.9206 15.0838 27.1741 13.2221 24.4412 11.4039C21.4972 9.44615 18.6216 7.23863 15.0012 6.06222C15.0012 6.06222 15.0012 6.06222 15.0012 6.06222C15.0012 6.06222 15.0012 6.06222 15.0012 6.06222C14.3692 5.88899 13.6921 5.75085 12.9304 5.85465C12.2081 5.98098 11.9543 6.51801 11.7931 6.7213L11.734 6.82068C11.3958 7.60305 11.3753 8.26175 11.3222 8.92745C11.2814 9.6183 11.2798 10.2925 11.284 10.9637C11.2849 11.8439 11.298 12.896 11.3135 13.5785C11.2871 13.7059 11.3087 13.8398 11.377 13.9515C11.4452 14.0633 11.554 14.1436 11.6802 14.1751C11.8063 14.2065 11.9401 14.1866 12.0528 14.12C12.1655 14.0533 12.2474 13.9452 12.2839 13.8203C12.2839 13.8203 12.2839 13.8203 12.2839 13.8203C12.4019 12.6921 12.4085 11.9222 12.4677 10.9958C12.5007 10.3264 12.5345 9.6675 12.5976 9.02884C12.6586 8.43024 12.7498 7.78859 12.9399 7.40306L12.8809 7.50244C13.0717 7.21538 13.1978 7.16068 13.12 7.19842C13.556 7.14145 14.0982 7.23153 14.6287 7.38158C14.6287 7.38158 14.6287 7.38158 14.6287 7.38158C14.6287 7.38158 14.6287 7.38158 14.6287 7.38158C17.8089 8.40237 20.7138 10.596 23.6185 12.6113C26.3218 14.4719 28.9901 16.3677 31.4995 18.432C32.7516 19.4665 33.9663 20.5362 35.0488 21.6918C35.5847 22.2679 36.0905 22.8701 36.4733 23.4816C36.8655 24.0697 37.0553 24.7862 36.9327 24.9308C36.8005 25.2994 36.7971 25.3743 36.7476 25.4792C36.7062 25.5715 36.6619 25.6374 36.5954 25.7105C35.4783 26.9429 34.2557 28.173 32.9963 29.1316C26.3672 33.2987 18.6574 38.2397 11.8751 40.25C11.8335 40.2518 11.8111 40.24 11.8851 40.2601C11.9372 40.2715 12.1758 40.375 12.3141 40.6175C12.4358 40.8519 12.3885 40.7931 12.397 40.7995C12.3944 40.7902 12.3879 40.7608 12.3822 40.7298C12.3702 40.6646 12.3581 40.5814 12.3475 40.4947C12.3262 40.32 12.3097 40.1294 12.2961 39.9359C12.2691 39.5475 12.2532 39.1443 12.2422 38.7385C12.2207 37.927 12.2187 37.1023 12.2235 36.2746C12.253 32.8181 12.3093 29.3255 12.2604 25.8317C12.2476 24.9287 12.2269 24.0257 12.1978 23.1229C12.1468 21.542 12.0702 19.9617 11.966 18.3836Z" fill="#21161C"/>
</svg>
