<svg width="48" height="48" viewBox="0 0 48 48" fill="none" xmlns="http://www.w3.org/2000/svg">
<g clip-path="url(#clip0_214_193)">
<path fill-rule="evenodd" clip-rule="evenodd" d="M37.6599 18.2602L37.0399 17.4402C36.3799 16.8402 35.4399 17.2002 35.4799 17.7602C35.4799 17.9202 35.4799 18.1402 35.6799 18.2802C36.2999 18.8802 35.9199 18.6402 36.1199 19.0002C36.6599 20.8002 36.7999 25.0002 35.0799 26.4402C34.9345 26.5624 34.8386 26.7335 34.8104 26.9214C34.7822 27.1093 34.8235 27.301 34.9266 27.4606C35.0297 27.6201 35.1875 27.7366 35.3704 27.7881C35.5533 27.8396 35.7487 27.8225 35.9199 27.7402C36.7045 27.2734 37.3801 26.6442 37.9014 25.8948C38.4228 25.1454 38.7778 24.2932 38.9426 23.3953C39.1074 22.4974 39.0782 21.5746 38.857 20.6889C38.6357 19.8032 38.2276 18.9751 37.6599 18.2602Z" fill="#FF9DE2"/>
<path fill-rule="evenodd" clip-rule="evenodd" d="M44.24 11.2197C44 10.8797 40.94 7.81969 40.48 9.11969C39.5 9.89969 41.86 10.4797 42.78 12.1397C43.9481 14.3444 44.7327 16.7318 45.1 19.1997C46.38 26.6197 43.36 32.4197 38.54 34.9397C38.4481 34.9857 38.3661 35.0493 38.2988 35.1269C38.2315 35.2046 38.1801 35.2947 38.1476 35.3922C38.1151 35.4897 38.1021 35.5927 38.1094 35.6952C38.1167 35.7977 38.1441 35.8978 38.19 35.9897C38.236 36.0816 38.2996 36.1636 38.3773 36.2309C38.4549 36.2983 38.5451 36.3497 38.6426 36.3822C38.7401 36.4147 38.843 36.4276 38.9455 36.4203C39.048 36.4131 39.1481 36.3857 39.24 36.3397C49.02 31.7197 50.5 20.1197 44.24 11.2197Z" fill="#FF9DE2"/>
<path fill-rule="evenodd" clip-rule="evenodd" d="M27.5998 6.80017C23.7998 2.00017 12.8598 11.8202 10.1598 17.5202C10.0424 17.4392 9.90242 17.3972 9.7598 17.4002C3.9998 17.3002 -1.5402 21.8602 0.399797 27.6602C0.784722 28.842 1.48262 29.8975 2.41934 30.7145C3.35606 31.5315 4.49661 32.0794 5.7198 32.3002C6.71765 32.5294 7.73621 32.6568 8.7598 32.6802C13.1798 32.4602 12.7598 32.2602 11.2798 19.8002C11.1598 19.1202 9.7798 18.9802 9.9798 20.6002C10.2687 23.787 10.2687 26.9934 9.9798 30.1802C9.2598 30.0802 9.8198 30.1802 7.4798 30.0002L5.4798 29.4602C2.4998 28.3602 0.619798 23.1202 5.8398 20.1402C9.3198 18.1402 10.3398 20.0002 11.8398 17.4602C14.2762 13.8247 17.5562 10.8329 21.3998 8.74017C22.5798 8.12017 24.9598 7.10017 25.7398 8.20017C27.7398 10.9602 28.2398 33.0202 25.8598 38.3402C25.1798 39.8602 24.2398 40.7602 22.6398 40.3402C20.1998 39.7002 15.3598 36.0202 12.6398 32.9602C12.5019 32.7957 12.3043 32.6928 12.0905 32.6741C11.8767 32.6553 11.6642 32.7223 11.4998 32.8602C11.3354 32.9981 11.2324 33.1957 11.2137 33.4095C11.1949 33.6233 11.2619 33.8357 11.3998 34.0002C13.6865 36.6371 16.3324 38.9396 19.2598 40.8402C19.9855 41.4539 20.8331 41.9067 21.7467 42.1688C22.6603 42.4308 23.6191 42.496 24.5598 42.3602C27.9198 41.5002 28.8998 36.9602 29.3798 33.5202C29.9998 28.2402 30.8198 11.0202 27.5998 6.80017Z" fill="#FF9DE2"/>
</g>
<defs>
<clipPath id="clip0_214_193">
<rect width="48" height="48" fill="white"/>
</clipPath>
</defs>
</svg>
