<svg width="48" height="48" viewBox="0 0 48 48" fill="none" xmlns="http://www.w3.org/2000/svg">
<path fill-rule="evenodd" clip-rule="evenodd" d="M27.5998 6.80017C23.7998 2.00017 12.8598 11.8202 10.1598 17.5202C10.0424 17.4392 9.90242 17.3972 9.7598 17.4002C3.9998 17.3002 -1.5402 21.8602 0.399797 27.6602C0.784722 28.842 1.48262 29.8975 2.41934 30.7145C3.35606 31.5315 4.49661 32.0794 5.7198 32.3002C6.71765 32.5294 7.73621 32.6568 8.7598 32.6802C13.1798 32.4602 12.7598 32.2602 11.2798 19.8002C11.1598 19.1202 9.7798 18.9802 9.9798 20.6002C10.2687 23.787 10.2687 26.9934 9.9798 30.1802C9.2598 30.0802 9.8198 30.1802 7.4798 30.0002L5.4798 29.4602C2.4998 28.3602 0.619798 23.1202 5.8398 20.1402C9.3198 18.1402 10.3398 20.0002 11.8398 17.4602C14.2762 13.8247 17.5562 10.8329 21.3998 8.74017C22.5798 8.12017 24.9598 7.10017 25.7398 8.20017C27.7398 10.9602 28.2398 33.0202 25.8598 38.3402C25.1798 39.8602 24.2398 40.7602 22.6398 40.3402C20.1998 39.7002 15.3598 36.0202 12.6398 32.9602C12.5019 32.7957 12.3043 32.6928 12.0905 32.6741C11.8767 32.6553 11.6642 32.7223 11.4998 32.8602C11.3354 32.9981 11.2324 33.1957 11.2137 33.4095C11.1949 33.6233 11.2619 33.8357 11.3998 34.0002C13.6865 36.6371 16.3324 38.9396 19.2598 40.8402C19.9855 41.4539 20.8331 41.9067 21.7467 42.1688C22.6603 42.4308 23.6191 42.496 24.5598 42.3602C27.9198 41.5002 28.8998 36.9602 29.3798 33.5202C29.9998 28.2402 30.8198 11.0202 27.5998 6.80017Z" fill="#FF9DE2"/>
<path d="M4.68858 38.6497C4.61162 38.7385 4.56236 38.8512 4.55816 38.9705C4.5539 39.0897 4.59419 39.2047 4.67165 39.2919C4.7491 39.379 4.85858 39.4325 4.97748 39.4423C5.09644 39.4521 5.21421 39.4164 5.31142 39.3503C5.31142 39.3503 5.31142 39.3503 5.31142 39.3503C5.98063 38.8949 6.64291 38.4316 7.29827 37.9606C9.91973 36.0764 12.4305 34.0676 14.8305 31.9343C23.2305 24.4676 31.4797 16.8314 39.5783 9.02561C40.1568 8.46806 40.7345 7.90964 41.3114 7.35035C41.3988 7.26556 41.4528 7.15066 41.459 7.02818C41.4653 6.90572 41.4237 6.78615 41.3429 6.69524C41.2621 6.60434 41.1482 6.54898 41.0258 6.54083C40.9035 6.53265 40.783 6.57278 40.6886 6.64965C40.6886 6.64965 40.6886 6.64965 40.6886 6.64965C40.0655 7.15704 39.4432 7.66528 38.8217 8.17439C30.1203 15.302 21.5695 22.5991 13.1695 30.0657C10.7695 32.1991 8.48027 34.457 6.30173 36.8394C5.75709 37.4351 5.21938 38.0385 4.68858 38.6497Z" fill="#FF9DE2"/>
</svg>
