<svg width="48" height="48" viewBox="0 0 48 48" fill="none" xmlns="http://www.w3.org/2000/svg">
<g clip-path="url(#clip0_214_61)">
<path d="M47.8598 22.3198C47.6802 20.6107 47.0633 18.9766 46.0683 17.5754C45.0734 16.1741 43.7342 15.0528 42.1798 14.3198C40.6255 13.7134 38.9854 13.3557 37.3198 13.2598C34.948 13.14 32.5716 13.14 30.1998 13.2598C26.4798 13.2598 22.7598 13.4798 19.0398 13.7598C5.43979 14.7998 5.69979 15.0798 4.35979 15.8598C3.25022 16.4989 2.29979 17.381 1.57979 18.4398C1.02388 19.231 0.604722 20.1099 0.339791 21.0398C0.0421031 21.9965 -0.07323 23.0006 -0.000208847 23.9998C0.12225 25.7556 0.55565 27.4757 1.27979 29.0798C2.04326 30.7306 3.27404 32.1214 4.81979 33.0798C5.55123 33.5127 6.34836 33.8235 7.17979 33.9998C8.87979 34.3798 10.6198 34.2398 12.4598 34.4798C13.8998 34.6598 15.3198 34.7398 16.7398 34.7798C19.9798 34.7798 23.2198 34.5998 26.4798 34.6398H32.4798H35.0998C37.1233 34.6142 39.137 34.3525 41.0998 33.8598C42.541 33.4703 43.8658 32.7358 44.9598 31.7198C46.1462 30.49 47.0268 28.9984 47.5305 27.3656C48.0343 25.7327 48.1471 24.0043 47.8598 22.3198ZM43.4198 29.9998C42.5991 30.7696 41.5932 31.314 40.4998 31.5798C38.693 32.0281 36.8411 32.2696 34.9798 32.2998H26.4998C23.2198 32.2998 19.9998 32.6198 16.7598 32.6198C15.4241 32.637 14.0885 32.5769 12.7598 32.4398C11.2198 32.2598 9.73979 32.4398 8.29979 32.1998C7.43291 32.1079 6.59491 31.8354 5.83979 31.3998C4.5649 30.6295 3.54299 29.5033 2.89979 28.1598C2.2314 26.7587 1.82472 25.2472 1.69979 23.6998C1.61627 22.9142 1.68417 22.1199 1.89979 21.3598C2.10975 20.5861 2.44048 19.8504 2.87979 19.1798C3.46095 18.3468 4.21043 17.6451 5.07979 17.1198C5.73979 16.7198 6.11979 15.9198 19.0798 15.2398C22.7598 15.0598 26.4598 14.9998 30.1598 15.0398C32.3598 15.0398 34.7598 15.0398 37.0798 15.2398C38.5315 15.3679 39.9548 15.7187 41.2998 16.2798C42.4992 16.8833 43.523 17.7855 44.2726 18.8994C45.0222 20.0133 45.4724 21.3015 45.5798 22.6398C45.8046 23.9501 45.7269 25.2945 45.3525 26.5701C44.9781 27.8457 44.317 29.0189 43.4198 29.9998Z" fill="#FF9DE2"/>
<path d="M30.2002 13.2598C32.5717 13.1399 34.9478 13.1399 37.3193 13.2598C38.985 13.3556 40.6254 13.7139 42.1797 14.3203C43.734 15.0533 45.0735 16.174 46.0684 17.5752C47.0633 18.9765 47.6798 20.6112 47.8594 22.3203C48.1465 24.0046 48.0339 25.7326 47.5303 27.3652C47.0265 28.998 46.1463 30.4899 44.96 31.7197C43.866 32.7357 42.5409 33.4698 41.0996 33.8594C39.1368 34.352 37.1231 34.614 35.0996 34.6396H26.4795C23.2197 34.5997 19.98 34.7803 16.7402 34.7803C15.3203 34.7403 13.8999 34.6595 12.46 34.4795C10.62 34.2395 8.87969 34.38 7.17969 34C6.34918 33.8206 5.55213 33.5101 4.81934 33.0801C3.27381 32.1217 2.04372 30.7306 1.28027 29.0801C0.556157 27.476 0.122475 25.7557 0 24C-0.0730169 23.0008 0.0421945 21.9967 0.339844 21.04C0.604775 20.1101 1.02417 19.2306 1.58008 18.4395C2.30002 17.3808 3.24999 16.4984 4.35938 15.8594C5.69938 15.0794 5.44004 14.7998 19.04 13.7598C22.76 13.4798 26.4803 13.2598 30.2002 13.2598ZM37.6514 17.9014C36.5046 17.6907 35.3258 17.7336 34.1973 18.0264C32.8164 18.412 31.6046 19.25 30.7568 20.4062C30.3001 20.997 29.9641 21.672 29.7686 22.3926C29.573 23.1132 29.5218 23.8658 29.6172 24.6064C29.9027 26.3108 30.798 27.8535 32.1367 28.9463C33.4519 30.1222 35.1738 30.739 36.9365 30.666C38.664 30.4889 40.2698 29.6931 41.457 28.4258C42.0776 27.8114 42.5564 27.0686 42.8604 26.25C43.1643 25.4314 43.2861 24.556 43.2168 23.6855C42.9857 21.9669 42.1403 20.39 40.8369 19.2461C39.886 18.5711 38.7984 18.1121 37.6514 17.9014Z" fill="#FF9DE2"/>
<path fill-rule="evenodd" clip-rule="evenodd" d="M35.4908 27.4984C37.0628 27.5953 38.9382 23.182 39.6277 21.757C39.836 21.5376 39.9668 21.2557 40 20.9546C39.9912 20.8535 39.9518 20.7575 39.8871 20.6795C39.8224 20.6015 39.7354 20.5451 39.638 20.5181C39.5405 20.491 39.4371 20.4944 39.3416 20.5279C39.2461 20.5614 39.1631 20.6234 39.1037 20.7055C38.7727 21.1068 35.353 26.0873 35.4357 26.2395C35.1599 26.2395 33.781 24.6208 33.5741 24.4824C33.3673 24.3441 32.7743 24.7315 33.0915 25.188C33.6293 26.0043 34.567 27.4569 35.4908 27.4984Z" fill="#FF9DE2"/>
</g>
<defs>
<clipPath id="clip0_214_61">
<rect width="48" height="48" fill="white"/>
</clipPath>
</defs>
</svg>
