<svg width="48" height="48" viewBox="0 0 48 48" fill="none" xmlns="http://www.w3.org/2000/svg">
<g clip-path="url(#clip0_214_57)">
<path d="M46.0683 17.5754C47.0633 18.9766 47.6802 20.6107 47.8598 22.3198C48.1471 24.0043 48.0343 25.7327 47.5305 27.3656C47.0268 28.9984 46.1462 30.49 44.9598 31.7198C43.8658 32.7358 42.541 33.4703 41.0998 33.8598C39.137 34.3525 37.1233 34.6142 35.0998 34.6398H32.4798H26.4798C23.2198 34.5998 19.9798 34.7798 16.7398 34.7798C15.3198 34.7398 13.8998 34.6598 12.4598 34.4798C10.6198 34.2398 8.87979 34.3798 7.17979 33.9998C6.34926 33.8204 5.55261 33.5099 4.81979 33.0798C3.27404 32.1214 2.04326 30.7306 1.27979 29.0798C0.55565 27.4757 0.12225 25.7556 -0.000208845 23.9998C-0.07323 23.0006 0.0421031 21.9965 0.339791 21.0398C0.604722 20.1099 1.02388 19.231 1.57979 18.4398C2.29979 17.381 3.25022 16.4989 4.35979 15.8598C5.69979 15.0798 5.43979 14.7998 19.0398 13.7598C22.7598 13.4798 26.4798 13.2598 30.1998 13.2598C32.5716 13.14 34.948 13.14 37.3198 13.2598C38.9854 13.3557 40.6255 13.7134 42.1798 14.3198C43.7342 15.0528 45.0734 16.1741 46.0683 17.5754Z" fill="#BCBCBC" fill-opacity="0.2"/>
<path d="M47.8598 22.3198C47.6802 20.6107 47.0633 18.9766 46.0683 17.5754C45.0734 16.1741 43.7342 15.0528 42.1798 14.3198C40.6255 13.7134 38.9854 13.3557 37.3198 13.2598C34.948 13.14 32.5716 13.14 30.1998 13.2598C26.4798 13.2598 22.7598 13.4798 19.0398 13.7598C5.43979 14.7998 5.69979 15.0798 4.35979 15.8598C3.25022 16.4989 2.29979 17.381 1.57979 18.4398C1.02388 19.231 0.604722 20.1099 0.339791 21.0398C0.0421031 21.9965 -0.07323 23.0006 -0.000208847 23.9998C0.12225 25.7556 0.55565 27.4757 1.27979 29.0798C2.04326 30.7306 3.27404 32.1214 4.81979 33.0798C5.55261 33.5099 6.34926 33.8204 7.17979 33.9998C8.87979 34.3798 10.6198 34.2398 12.4598 34.4798C13.8998 34.6598 15.3198 34.7398 16.7398 34.7798C19.9798 34.7798 23.2198 34.5998 26.4798 34.6398H32.4798H35.0998C37.1233 34.6142 39.137 34.3525 41.0998 33.8598C42.541 33.4703 43.8658 32.7358 44.9598 31.7198C46.1462 30.49 47.0268 28.9984 47.5305 27.3656C48.0343 25.7327 48.1471 24.0043 47.8598 22.3198ZM43.4198 29.9998C42.5991 30.7696 41.5932 31.314 40.4998 31.5798C38.693 32.0281 36.8411 32.2696 34.9798 32.2998H26.4998C23.2198 32.2998 19.9998 32.6198 16.7598 32.6198C15.4241 32.637 14.0885 32.5769 12.7598 32.4398C11.2198 32.2598 9.73979 32.4398 8.29979 32.1998C7.43291 32.1079 6.59491 31.8354 5.83979 31.3998C4.5649 30.6295 3.54299 29.5033 2.89979 28.1598C2.2314 26.7587 1.82472 25.2472 1.69979 23.6998C1.61627 22.9142 1.68417 22.1199 1.89979 21.3598C2.10975 20.5861 2.44048 19.8504 2.87979 19.1798C3.46095 18.3468 4.21043 17.6451 5.07979 17.1198C5.73979 16.7198 6.11979 15.9198 19.0798 15.2398C22.7598 15.0598 26.4598 14.9998 30.1598 15.0398C32.3598 15.0398 34.7598 15.0398 37.0798 15.2398C38.5315 15.3679 39.9548 15.7187 41.2998 16.2798C42.4992 16.8833 43.523 17.7855 44.2726 18.8994C45.0222 20.0133 45.4724 21.3015 45.5798 22.6398C45.8046 23.9501 45.7269 25.2945 45.3525 26.5701C44.9781 27.8457 44.317 29.0189 43.4198 29.9998Z" fill="#BCBCBC"/>
<path d="M6.27932 20.3796C7.12703 19.2234 8.33844 18.3852 9.71932 17.9996C10.8481 17.7067 12.0273 17.6641 13.1743 17.8749C14.3213 18.0856 15.4084 18.5446 16.3593 19.2196C17.6629 20.3636 18.5083 21.9407 18.7393 23.6596C18.8086 24.5302 18.687 25.4054 18.383 26.2241C18.079 27.0428 17.6 27.7852 16.9793 28.3996C15.7921 29.6669 14.1868 30.4625 12.4593 30.6396C10.6965 30.7127 8.97457 30.0957 7.65931 28.9196C6.32041 27.8267 5.42473 26.2842 5.13931 24.5796C5.04391 23.839 5.0955 23.0868 5.29111 22.3661C5.48673 21.6454 5.82253 20.9704 6.27932 20.3796Z" fill="#BCBCBC"/>
</g>
<defs>
<clipPath id="clip0_214_57">
<rect width="48" height="48" fill="white"/>
</clipPath>
</defs>
</svg>
